<svg width="1440" height="558" viewBox="0 0 1440 558" fill="none" xmlns="http://www.w3.org/2000/svg">
<path d="M1332.09 501.293C1368.45 533.113 1417.9 530.212 1440 523.969V0H0V473.325L16.2323 466.693C23.721 463.633 32.2799 465.514 38.3836 470.824C99.2784 523.792 155.765 495.336 182.45 468.6C186.671 464.371 192.247 461.638 198.223 461.638H232.231C241.307 461.638 249.024 467.869 252.614 476.204C278.105 535.386 347.834 528.085 389.889 513.445C396.979 510.977 404.889 512.125 410.9 516.624C484.786 571.92 534.651 541.065 558.816 506.629C565.996 496.397 580.268 492.09 592.351 495.293C622.492 503.281 657.258 494.428 682.815 483.597C695.201 478.347 710.169 484.824 716.745 496.559C744.477 546.048 804.734 538.641 842.354 524.385C849.603 521.638 857.836 522.649 864.062 527.267C941.439 584.667 992.87 550.534 1016.63 514.89C1022.91 505.466 1034.99 500.843 1045.78 504.268C1106.95 523.676 1145.78 491.396 1160.85 467.387C1162.77 464.33 1166.04 462.288 1169.65 462.288C1173.09 462.288 1176.25 464.162 1178.13 467.049C1211.18 517.865 1269.84 510.509 1305.82 496.39C1314.68 492.911 1324.92 495.019 1332.09 501.293Z" fill="#E8EEEE"/>
</svg>
