<svg width="77" height="47" viewBox="0 0 77 47" fill="none" xmlns="http://www.w3.org/2000/svg">
<path d="M67.9169 10.765C60.4103 6.08531 56.0303 2.63549 49.2051 0.328511C46.3727 -0.628891 35.5665 0.715915 29.2984 1.6876C26.6535 2.0976 23.9626 2.25119 21.319 2.66872C11.1674 4.27204 7.20846 11.8597 6.08101 16.2578C5.52924 18.4102 3.3088 21.8998 1.86633 24.8294C0.732246 27.1327 0.190346 29.7019 0.0422592 32.2649C-0.130791 35.2602 0.179489 39.1861 1.88084 42.7333C4.49428 48.1822 41.238 47.2741 59.2832 46.1389C62.8222 45.6628 70.857 43.5023 74.6838 38.6686C75.225 37.985 75.5812 37.2495 75.7849 36.4815C77.7066 29.2377 74.2766 14.7296 67.9169 10.765Z" fill="#F3F6F6"/>
</svg>
