<svg width="50" height="33" viewBox="0 0 50 33" fill="none" xmlns="http://www.w3.org/2000/svg">
<path d="M6.21149 7.55837C11.0513 4.27266 13.8752 1.85045 18.2756 0.230657C19.8588 -0.352115 25.3058 0.280002 29.3606 0.903078C32.2348 1.34474 35.2088 1.41035 37.9799 2.29196C43.2592 3.97154 45.4201 8.61437 46.0793 11.415C46.3904 12.7362 47.5236 14.775 48.4252 16.6413C49.4552 18.7737 49.9778 21.1399 49.9992 23.5079C50.0169 25.4714 49.7413 27.8383 48.7874 30.0042C47.1024 33.8301 23.4123 33.1924 11.778 32.3954C9.49621 32.0611 4.31589 30.5442 1.84861 27.1503C1.48804 26.6543 1.25482 26.1194 1.12583 25.5606C-0.0680661 20.3885 1.81984 10.5398 6.21149 7.55837Z" fill="#F3F6F6"/>
</svg>
