<svg width="175" height="109" viewBox="0 0 175 109" fill="none" xmlns="http://www.w3.org/2000/svg">
<path d="M15.6935 24.2081C11.9037 28.5901 13.2277 34.0669 10.6664 38.9617C9.95641 40.2387 10.5881 42.5367 9.89885 43.9314C9.3804 44.9804 8.64297 47.1178 7.55795 47.7276C6.46467 48.3421 6.52182 51.2841 6.52182 52.3177C6.52182 53.9106 5.83106 55.115 5.83106 56.6661C5.83106 58.2085 5.14031 59.7296 5.14031 61.3251C5.14031 63.1936 5.61815 65.5179 4.71818 67.2266C3.66647 69.2233 3.62384 71.7705 2.64591 73.7493C1.78857 75.484 2.03191 77.6844 2.03191 79.5817C2.03191 81.2085 2.37728 82.665 2.37728 84.3098C2.37728 86.1677 3.63052 87.4668 4.3728 88.9688C5.89363 92.0461 11.0404 95.0479 14.5423 96.1817C19.2201 97.6962 22.9925 100.764 27.7434 102.325C30.1095 103.102 32.186 104.169 34.6701 104.654C36.6012 105.032 38.5892 105.344 40.5224 105.672C45.6583 106.544 50.3594 106.533 55.4887 106.363C57.7993 106.286 60.2008 105.859 62.473 105.362C65.0026 104.808 67.8674 103.629 70.4167 103.567C75.6561 103.44 80.7649 102.698 85.6134 104.879C87.5363 105.743 88.7023 106.984 91.1394 106.984C94.0176 106.984 96.9087 107.148 99.6971 106.432C101.824 105.885 104.319 106.221 106.336 105.362C108.324 104.515 109.925 104.188 112.131 104.188C118.844 104.188 125.49 104.333 132.086 103.015C133.057 102.821 134.179 102.946 135.175 102.946C136.38 102.946 137.311 102.379 138.456 102.325C140.308 102.237 142.96 101.215 144.673 100.53C146.522 99.7912 148.569 98.9884 150.468 98.3559C152.584 97.6509 154.262 96.2791 156.339 95.5605C161.324 93.8361 166.659 89.8286 168.849 85.3969L168.862 85.3723C171.061 80.9229 172.994 77.0106 172.994 72.0237C172.994 67.6817 173.183 62.4513 171.44 58.3744C170.437 56.0294 170.367 53.1983 169.003 50.9199C167.73 48.7935 167.363 46.28 166.01 44.173C165.258 43.0032 164.275 41.8967 163.669 40.6701C162.12 37.5366 160.002 33.8124 157.605 31.0414C155.612 28.7362 153.409 25.2391 150.199 24.2081C148.399 23.63 145.042 23.3394 143.81 21.8613C141.949 19.6307 139.122 17.3846 136.71 15.6493C135.333 14.6584 133.835 13.6222 132.585 12.5605C131.701 11.8099 130.26 11.5035 129.304 10.8349C127.623 9.65936 125.78 8.78283 124.123 7.59085C123.066 6.83051 120.635 6.5892 119.269 6.3657C117.4 6.06011 115.141 6.34844 113.244 6.34844H106.144C104.023 6.34844 101.331 5.95097 99.2558 6.3657C96.4835 6.91973 93.6801 6.96965 90.794 6.96965C89.1979 6.96965 86.1295 7.50362 84.7499 6.81434C83.7759 6.32772 82.1676 6.32883 81.0467 5.96881C79.397 5.43896 78.0437 4.22725 76.4608 3.57027C75.1429 3.02323 73.9936 2 72.489 2H69.1887C66.6136 2 64.2757 2.31812 61.7823 2.63846C60.2503 2.83528 57.6743 3.58858 56.4097 4.31227C55.3545 4.91617 53.9085 5.10561 52.8025 5.65821C51.756 6.18105 50.6362 6.70267 49.5406 7.12495C48.0824 7.68693 46.3931 8.49777 45.2041 9.45447C44.3553 10.1375 43.1129 10.2167 42.2492 10.8522C40.5404 12.1096 37.8724 11.9756 36.3778 13.3197C35.8578 13.7874 34.4966 13.856 33.8067 14.1825C32.487 14.8072 31.0252 15.4345 29.6621 15.9599C24.5746 17.9207 19.1813 20.1753 15.6935 24.2081Z" fill="#F3F6F6" stroke="#F3F6F6" stroke-width="3" stroke-linecap="round"/>
</svg>
