<svg width="137" height="83" viewBox="0 0 137 83" fill="none" xmlns="http://www.w3.org/2000/svg">
<path d="M14.3085 16.1786C11.1949 19.2735 12.0031 23.3942 9.82168 26.9209C9.22022 27.8392 9.61837 29.5714 9.02826 30.5779C8.58439 31.335 7.92728 32.8909 7.0616 33.2984C6.18932 33.709 6.11625 35.8952 6.07502 36.6624C6.01147 37.8449 5.42778 38.7102 5.3659 39.8615C5.30436 41.0065 4.70804 42.1068 4.64439 43.2912C4.56984 44.6782 4.84765 46.4235 4.08161 47.6543C3.18642 49.0927 3.05174 50.9817 2.21448 52.4098C1.48046 53.6619 1.58136 55.3054 1.50566 56.7137C1.44076 57.9214 1.65047 59.0169 1.58485 60.2378C1.51072 61.617 2.43069 62.6336 2.94635 63.7795C4.00287 66.1272 7.87407 68.57 10.5443 69.5575C14.1112 70.8767 16.9141 73.3109 20.5357 74.6677C22.3395 75.3435 23.9072 76.2216 25.814 76.6857C27.2964 77.0464 28.8254 77.3612 30.3114 77.6853C34.2592 78.5463 37.905 78.7345 41.8892 78.8214C43.684 78.8606 45.5632 78.6438 47.345 78.3696C49.3286 78.0642 51.5971 77.3082 53.5764 77.3685C57.6442 77.4923 61.6354 77.1549 65.308 78.9753C66.7646 79.6973 67.6192 80.6668 69.5091 80.7683C71.7409 80.8883 73.9762 81.1307 76.167 80.7151C77.8384 80.398 79.7592 80.7514 81.3577 80.1976C82.9333 79.6517 84.1876 79.4762 85.8979 79.5681C91.1039 79.8479 96.2514 80.2323 101.419 79.5287C102.18 79.4251 103.044 79.5647 103.817 79.6063C104.751 79.6565 105.496 79.2744 106.386 79.2819C107.825 79.294 109.923 78.6456 111.278 78.2088C112.741 77.7373 114.36 77.2267 115.858 76.8364C117.528 76.4013 118.883 75.4528 120.523 75.006C124.457 73.9338 128.754 71.1813 130.629 67.9828L130.639 67.9651C132.522 64.7539 134.177 61.9303 134.376 58.2284C134.55 55.0053 134.905 51.1306 133.716 48.0316C133.032 46.2491 133.09 44.1447 132.124 42.3965C131.221 40.765 131.037 38.8839 130.072 37.2634C129.536 36.3638 128.817 35.5014 128.396 34.5656C127.32 32.175 125.826 29.3223 124.079 27.1654C122.625 25.3712 121.056 22.6834 118.608 21.7843C117.236 21.2802 114.644 20.9245 113.747 19.776C112.394 18.0427 110.291 16.2575 108.49 14.8688C107.461 14.0759 106.341 13.2442 105.414 12.404C104.759 11.8101 103.653 11.5225 102.939 10.9864C101.682 10.0437 100.288 9.31623 99.051 8.36236C98.2618 7.7539 96.3865 7.47346 95.3355 7.25059C93.8985 6.94586 92.1357 7.06576 90.6643 6.98668L85.1592 6.6908C83.5142 6.60239 81.4428 6.19516 79.8171 6.41653C77.6453 6.71225 75.4694 6.63247 73.2315 6.51219C71.9938 6.44567 69.5932 6.71416 68.5509 6.14501C67.815 5.74319 66.5678 5.67699 65.713 5.36303C64.4549 4.90095 63.4539 3.94508 62.2527 3.39143C61.2526 2.93043 60.4022 2.12297 59.2355 2.06027L56.6763 1.92272C54.6795 1.8154 52.854 1.95411 50.9077 2.08799C49.7119 2.17024 47.6843 2.62206 46.6749 3.10656C45.8325 3.51087 44.7037 3.59123 43.824 3.95534C42.9917 4.29983 42.1025 4.64037 41.2361 4.90817C40.083 5.26457 38.7407 5.79605 37.7806 6.45668C37.0951 6.92833 36.1286 6.93532 35.4335 7.37106C34.0582 8.23323 31.9947 8.0226 30.7822 8.95807C30.3602 9.28356 29.302 9.27772 28.754 9.49137C27.7057 9.90005 26.5472 10.3048 25.4693 10.638C21.446 11.8815 17.174 13.3303 14.3085 16.1786Z" fill="#F3F6F6" stroke="#F3F6F6" stroke-width="3" stroke-linecap="round"/>
</svg>
