<svg width="338" height="249" viewBox="0 0 338 249" fill="none" xmlns="http://www.w3.org/2000/svg">
<g clip-path="url(#clip0_81_12)">
<path d="M58.5834 220.344C58.5834 220.344 44.659 231.399 48.3276 235.524C51.7027 239.307 271.704 50.9529 309.206 18.8323C311.266 17.1192 312.668 14.7435 313.17 12.1114C313.673 9.47934 313.245 6.75438 311.961 4.40255C309.939 0.929612 306.385 -1.53243 300.156 1.14157C297.988 2.09744 295.997 3.41518 294.27 5.03844L58.5834 220.344Z" fill="#E1A879"/>
<path d="M96.7042 117.933C96.7042 117.933 39.2947 116.955 6.08167 183.397C6.08167 183.397 -8.42965 220.165 7.36977 229.524C20.5767 237.334 101.824 241.769 128.156 243.024C134.598 243.316 141.042 242.489 147.2 240.578C163.31 235.589 192.12 223.181 196.115 197.583C201.545 161.793 136.064 115.031 96.7042 117.933Z" fill="#E9EDB7"/>
<path d="M172.473 229.295C155.451 172.718 121.651 152.353 98.8237 144.999C84.3865 140.455 68.794 141.277 54.9147 147.315C35.0065 155.907 6.71751 175.033 0.195557 215.795C0.195557 215.795 0.831453 225.578 7.38601 229.491C13.9406 233.404 28.2726 234.741 28.2726 234.741L104.058 241.687C104.058 241.687 134.482 243.464 145.765 240.97C157.375 238.426 172.473 229.295 172.473 229.295Z" fill="#F4F5D2"/>
<path d="M89.6931 171.772C85.6267 168.796 80.7898 167.051 75.7594 166.748C70.729 166.444 65.7175 167.594 61.3226 170.06C50.9853 175.849 37.7132 186.218 37.3219 201.415C36.686 226.41 104.09 217.067 104.09 217.067C104.09 217.067 126.656 209.649 105.721 186.594C100.888 181.129 95.5182 176.164 89.6931 171.772Z" fill="#CEDC85"/>
<path d="M74.595 128.058C92.7343 125.911 111.09 129.521 127.064 138.379C128.205 139.015 129.233 137.254 128.091 136.618C111.808 127.572 93.0969 123.865 74.595 126.02C73.3069 126.183 73.3069 128.221 74.595 128.058Z" fill="#F4F5D2"/>
<path d="M133.194 142.146C136.647 143.595 139.644 145.95 141.869 148.961C142.01 149.187 142.233 149.349 142.49 149.416C142.748 149.483 143.021 149.448 143.255 149.32C143.486 149.184 143.654 148.963 143.724 148.704C143.794 148.445 143.76 148.168 143.63 147.934C141.105 144.495 137.688 141.812 133.749 140.173C133.487 140.103 133.209 140.139 132.973 140.274C132.738 140.408 132.566 140.63 132.493 140.891C132.427 141.15 132.463 141.425 132.593 141.658C132.724 141.892 132.939 142.067 133.194 142.146Z" fill="#F4F5D2"/>
<path d="M43.0613 235.752C43.0613 235.752 27.0499 243.497 29.7402 248.323C32.186 252.758 288.221 117.037 331.706 93.9327C334.203 92.6488 336.145 90.4966 337.166 87.8811C338.187 85.2656 338.217 82.3671 337.25 79.7311C335.897 76.2582 332.946 73.5679 326.717 74.7093C324.418 75.1737 322.213 76.0226 320.195 77.2202L43.0613 235.752Z" fill="#E1A879"/>
</g>
<defs>
<clipPath id="clip0_81_12">
<rect width="338" height="249" fill="white"/>
</clipPath>
</defs>
</svg>
