<svg width="128" height="17" viewBox="0 0 128 17" fill="none" xmlns="http://www.w3.org/2000/svg">
<path d="M14.1921 5.1C15.0439 5.1 15.7958 5.27302 16.448 5.61905C17.1134 5.95177 17.6325 6.47082 18.0051 7.17619C18.3911 7.86825 18.5841 8.75995 18.5841 9.85128V16H15.4698V10.3304C15.4698 9.46532 15.2901 8.8265 14.9308 8.41392C14.5714 8.00134 14.0657 7.79505 13.4136 7.79505C12.9611 7.79505 12.5551 7.90153 12.1958 8.11447C11.8364 8.3141 11.557 8.62021 11.3573 9.03278C11.1577 9.44536 11.0579 9.97106 11.0579 10.6099V16H7.94359V10.3304C7.94359 9.46532 7.76392 8.8265 7.40458 8.41392C7.05855 8.00134 6.55946 7.79505 5.90733 7.79505C5.45482 7.79505 5.0489 7.90153 4.68956 8.11447C4.33022 8.3141 4.05073 8.62021 3.8511 9.03278C3.65147 9.44536 3.55165 9.97106 3.55165 10.6099V16H0.437363V5.25971H3.4119V8.19432L2.85293 7.3359C3.22558 6.60391 3.75128 6.05159 4.43004 5.67894C5.1221 5.29298 5.90733 5.1 6.78571 5.1C7.77057 5.1 8.629 5.35287 9.36099 5.85861C10.1063 6.35104 10.5987 7.10965 10.8383 8.13443L9.74029 7.83498C10.0996 6.99652 10.6719 6.33107 11.4571 5.83864C12.2557 5.34622 13.1673 5.1 14.1921 5.1ZM27.5623 16.1597C26.4177 16.1597 25.3996 15.9201 24.5079 15.441C23.6295 14.9619 22.9308 14.3098 22.4117 13.4846C21.906 12.6462 21.6531 11.6946 21.6531 10.6299C21.6531 9.55183 21.906 8.60024 22.4117 7.77509C22.9308 6.93663 23.6295 6.28449 24.5079 5.81868C25.3996 5.33956 26.4177 5.1 27.5623 5.1C28.6935 5.1 29.705 5.33956 30.5967 5.81868C31.4884 6.28449 32.1871 6.92998 32.6929 7.75513C33.1986 8.58028 33.4515 9.53852 33.4515 10.6299C33.4515 11.6946 33.1986 12.6462 32.6929 13.4846C32.1871 14.3098 31.4884 14.9619 30.5967 15.441C29.705 15.9201 28.6935 16.1597 27.5623 16.1597ZM27.5623 13.6044C28.0813 13.6044 28.5471 13.4846 28.9597 13.2451C29.3723 13.0055 29.6984 12.6661 29.9379 12.2269C30.1775 11.7744 30.2973 11.2421 30.2973 10.6299C30.2973 10.0043 30.1775 9.47198 29.9379 9.03278C29.6984 8.59359 29.3723 8.25421 28.9597 8.01465C28.5471 7.77509 28.0813 7.65531 27.5623 7.65531C27.0432 7.65531 26.5774 7.77509 26.1648 8.01465C25.7523 8.25421 25.4195 8.59359 25.1667 9.03278C24.9271 9.47198 24.8073 10.0043 24.8073 10.6299C24.8073 11.2421 24.9271 11.7744 25.1667 12.2269C25.4195 12.6661 25.7523 13.0055 26.1648 13.2451C26.5774 13.4846 27.0432 13.6044 27.5623 13.6044ZM40.9232 16.1597C39.6589 16.1597 38.674 15.8403 37.9687 15.2015C37.2633 14.5493 36.9106 13.5844 36.9106 12.3068V2.88407H40.0249V12.2668C40.0249 12.7194 40.1447 13.072 40.3842 13.3249C40.6238 13.5645 40.9498 13.6842 41.3624 13.6842C41.8549 13.6842 42.2741 13.5512 42.6201 13.285L43.4586 15.481C43.1392 15.7072 42.7532 15.8802 42.3007 16C41.8615 16.1065 41.4024 16.1597 40.9232 16.1597ZM35.2536 7.89487V5.49927H42.7V7.89487H35.2536ZM46.2049 16V5.25971H49.3192V16H46.2049ZM47.7621 3.76245C47.1898 3.76245 46.724 3.59609 46.3647 3.26337C46.0053 2.93065 45.8256 2.51807 45.8256 2.02564C45.8256 1.53321 46.0053 1.12063 46.3647 0.787912C46.724 0.455189 47.1898 0.288827 47.7621 0.288827C48.3344 0.288827 48.8002 0.448534 49.1595 0.767949C49.5189 1.07405 49.6985 1.47332 49.6985 1.96575C49.6985 2.4848 49.5189 2.91734 49.1595 3.26337C48.8135 3.59609 48.3477 3.76245 47.7621 3.76245ZM58.3982 16.1597C57.2403 16.1597 56.2089 15.9268 55.3039 15.461C54.3989 14.9819 53.6868 14.3231 53.1678 13.4846C52.6621 12.6462 52.4092 11.6946 52.4092 10.6299C52.4092 9.55183 52.6621 8.60024 53.1678 7.77509C53.6868 6.93663 54.3989 6.28449 55.3039 5.81868C56.2089 5.33956 57.2403 5.1 58.3982 5.1C59.5295 5.1 60.5143 5.33956 61.3528 5.81868C62.1912 6.28449 62.8101 6.95659 63.2094 7.83498L60.7938 9.1326C60.5143 8.62686 60.1616 8.25421 59.7357 8.01465C59.3232 7.77509 58.8707 7.65531 58.3782 7.65531C57.8459 7.65531 57.3668 7.77509 56.9409 8.01465C56.515 8.25421 56.1756 8.59359 55.9227 9.03278C55.6832 9.47198 55.5634 10.0043 55.5634 10.6299C55.5634 11.2554 55.6832 11.7877 55.9227 12.2269C56.1756 12.6661 56.515 13.0055 56.9409 13.2451C57.3668 13.4846 57.8459 13.6044 58.3782 13.6044C58.8707 13.6044 59.3232 13.4913 59.7357 13.265C60.1616 13.0255 60.5143 12.6462 60.7938 12.1271L63.2094 13.4447C62.8101 14.3098 62.1912 14.9819 61.3528 15.461C60.5143 15.9268 59.5295 16.1597 58.3982 16.1597ZM66.0007 16V5.25971H68.9752V8.29414L68.556 7.41575C68.8754 6.65714 69.3878 6.08486 70.0931 5.6989C70.7985 5.29963 71.6569 5.1 72.6684 5.1V7.97473C72.5353 7.96142 72.4156 7.95476 72.3091 7.95476C72.2026 7.94145 72.0895 7.9348 71.9697 7.9348C71.1179 7.9348 70.4259 8.18101 69.8935 8.67344C69.3745 9.15256 69.1149 9.90452 69.1149 10.9293V16H66.0007ZM75.5378 16V5.25971H78.6521V16H75.5378ZM77.095 3.76245C76.5227 3.76245 76.0569 3.59609 75.6975 3.26337C75.3382 2.93065 75.1585 2.51807 75.1585 2.02564C75.1585 1.53321 75.3382 1.12063 75.6975 0.787912C76.0569 0.455189 76.5227 0.288827 77.095 0.288827C77.6673 0.288827 78.1331 0.448534 78.4924 0.767949C78.8518 1.07405 79.0314 1.47332 79.0314 1.96575C79.0314 2.4848 78.8518 2.91734 78.4924 3.26337C78.1464 3.59609 77.6806 3.76245 77.095 3.76245ZM96.2954 5.1C97.1472 5.1 97.8991 5.27302 98.5512 5.61905C99.2167 5.95177 99.7357 6.47082 100.108 7.17619C100.494 7.86825 100.687 8.75995 100.687 9.85128V16H97.573V10.3304C97.573 9.46532 97.3934 8.8265 97.034 8.41392C96.6747 8.00134 96.1689 7.79505 95.5168 7.79505C95.0643 7.79505 94.6584 7.90153 94.299 8.11447C93.9397 8.3141 93.6602 8.62021 93.4606 9.03278C93.2609 9.44536 93.1611 9.97106 93.1611 10.6099V16H90.0468V10.3304C90.0468 9.46532 89.8672 8.8265 89.5078 8.41392C89.1618 8.00134 88.6627 7.79505 88.0106 7.79505C87.5581 7.79505 87.1522 7.90153 86.7928 8.11447C86.4335 8.3141 86.154 8.62021 85.9544 9.03278C85.7547 9.44536 85.6549 9.97106 85.6549 10.6099V16H82.5406V5.25971H85.5152V8.19432L84.9562 7.3359C85.3288 6.60391 85.8545 6.05159 86.5333 5.67894C87.2254 5.29298 88.0106 5.1 88.889 5.1C89.8738 5.1 90.7323 5.35287 91.4642 5.85861C92.2095 6.35104 92.702 7.10965 92.9415 8.13443L91.8435 7.83498C92.2029 6.99652 92.7752 6.33107 93.5604 5.83864C94.3589 5.34622 95.2706 5.1 96.2954 5.1ZM109.885 16.1597C108.661 16.1597 107.583 15.9201 106.651 15.441C105.733 14.9619 105.021 14.3098 104.515 13.4846C104.009 12.6462 103.756 11.6946 103.756 10.6299C103.756 9.55183 104.003 8.60024 104.495 7.77509C105.001 6.93663 105.686 6.28449 106.551 5.81868C107.416 5.33956 108.395 5.1 109.486 5.1C110.537 5.1 111.482 5.32625 112.321 5.77875C113.172 6.21795 113.845 6.85678 114.337 7.69524C114.829 8.52039 115.076 9.5119 115.076 10.6698C115.076 10.7896 115.069 10.9293 115.056 11.089C115.042 11.2354 115.029 11.3752 115.016 11.5082H106.292V9.69157H113.379L112.181 10.2306C112.181 9.67161 112.068 9.18584 111.842 8.77326C111.615 8.36068 111.303 8.04127 110.903 7.81502C110.504 7.57546 110.038 7.45568 109.506 7.45568C108.973 7.45568 108.501 7.57546 108.088 7.81502C107.689 8.04127 107.376 8.36734 107.15 8.79322C106.924 9.2058 106.811 9.69823 106.811 10.2705V10.7496C106.811 11.3352 106.937 11.8543 107.19 12.3068C107.456 12.746 107.822 13.0853 108.288 13.3249C108.767 13.5512 109.326 13.6643 109.965 13.6643C110.537 13.6643 111.036 13.5778 111.462 13.4048C111.901 13.2317 112.301 12.9722 112.66 12.6262L114.317 14.4229C113.825 14.9819 113.206 15.4144 112.46 15.7205C111.715 16.0133 110.857 16.1597 109.885 16.1597ZM124.443 16V13.9038L124.243 13.4447V9.69157C124.243 9.02613 124.037 8.50708 123.624 8.13443C123.225 7.76178 122.606 7.57546 121.768 7.57546C121.195 7.57546 120.63 7.66862 120.071 7.85494C119.525 8.02796 119.059 8.26752 118.673 8.57363L117.555 6.39762C118.141 5.98504 118.846 5.66563 119.671 5.43938C120.497 5.21313 121.335 5.1 122.187 5.1C123.824 5.1 125.095 5.48596 126 6.25788C126.905 7.02979 127.357 8.23425 127.357 9.87125V16H124.443ZM121.169 16.1597C120.33 16.1597 119.612 16.02 119.013 15.7405C118.414 15.4477 117.955 15.0551 117.635 14.5626C117.316 14.0702 117.156 13.5179 117.156 12.9057C117.156 12.2668 117.309 11.7079 117.615 11.2288C117.935 10.7496 118.434 10.377 119.112 10.1108C119.791 9.83132 120.676 9.69157 121.768 9.69157H124.622V11.5082H122.107C121.375 11.5082 120.869 11.628 120.59 11.8676C120.324 12.1071 120.19 12.4066 120.19 12.7659C120.19 13.1652 120.343 13.4846 120.65 13.7242C120.969 13.9504 121.402 14.0636 121.947 14.0636C122.466 14.0636 122.932 13.9438 123.345 13.7042C123.757 13.4513 124.057 13.0853 124.243 12.6062L124.722 14.0436C124.496 14.7357 124.083 15.2614 123.484 15.6207C122.885 15.98 122.114 16.1597 121.169 16.1597Z" fill="black"/>
</svg>
