<svg width="279" height="147" viewBox="0 0 279 147" fill="none" xmlns="http://www.w3.org/2000/svg">
<g clip-path="url(#clip0_81_34)">
<path d="M255.629 68.8787C272.612 77.4993 278.086 118.907 278.086 118.907C278.086 118.907 246.822 117.829 229.236 126.392C211.65 134.956 163.303 145.659 163.303 145.659C67.2549 152.613 33.9938 98.8353 23.7641 79.8412C13.5343 60.8472 36.5511 42.1262 36.5511 42.1262C32.442 30.8906 39.1804 22.8017 46.9677 17.5144C54.6173 12.4233 63.5312 9.55811 72.7146 9.23857C94.2661 8.29031 147.915 7.54322 169.179 21.9252C183.302 31.4797 199.207 37.198 211.118 40.4738C224.13 44.0874 236.065 50.8191 245.888 60.0857C250.687 64.6403 254.897 68.5052 255.629 68.8787Z" fill="#CCDC84"/>
<path d="M38.0741 43.0884C38.0741 43.0884 7.38486 26.6949 -0.00012207 29.3673V38.735C-0.00012207 38.735 34.669 43.0884 38.0741 43.0884Z" fill="#CCDC84"/>
<path d="M57.5349 58.7348C57.5349 58.7348 43.512 81.4788 74.2013 99.6682C104.891 117.858 147.333 109.136 147.333 109.136C147.333 109.136 226.154 103.389 229.228 91.7085C232.303 80.0276 222.792 9.10891 138.281 0.0141841C138.281 0.0141841 83.3391 -1.50879 57.5779 56.8526" fill="#F9CBC8"/>
<path d="M147.333 109.137C96.5575 117.283 74.2014 99.6688 74.2014 99.6688C74.2014 99.6688 100.724 22.7443 155.292 20.4743C209.861 18.2042 228.338 74.669 228.338 74.669C228.338 74.669 232.849 91.5223 226.901 94.4821C220.953 97.4418 206.599 103.246 175.177 106.378L147.333 109.137Z" fill="#FCE3E0"/>
<path d="M161.228 89.4998L131.485 63.563C130.275 62.4153 129.444 60.9247 129.105 59.2913C128.766 57.6579 128.935 55.9599 129.589 54.4252C131.931 48.9942 138.727 43.5919 158.496 55.201C158.496 55.201 165.867 44.8994 174.761 45.7614C176.588 45.9602 178.271 46.845 179.471 48.2371C180.672 49.6292 181.299 51.4249 181.226 53.2614C180.982 60.9625 179.705 75.8649 161.228 89.4998Z" fill="#E57769"/>
<path d="M207.857 57.8304L205.314 54.1236C205.198 53.915 205.167 53.6694 205.229 53.4389C205.291 53.2083 205.44 53.0108 205.644 52.888C205.852 52.7763 206.094 52.7483 206.321 52.8097C206.548 52.8712 206.743 53.0175 206.866 53.2184L209.409 56.9109C209.468 57.0118 209.507 57.1234 209.524 57.2395C209.54 57.3555 209.533 57.4736 209.504 57.5871C209.475 57.7005 209.423 57.8071 209.353 57.9006C209.282 57.9941 209.194 58.0728 209.093 58.1321C208.886 58.2494 208.641 58.2821 208.411 58.2231C208.181 58.1642 207.982 58.0183 207.857 57.8161V57.8304Z" fill="#FCE3E0"/>
<path d="M201.693 49.1084C195.77 40.3404 188.094 32.8946 179.15 27.2408C178.188 26.623 179.15 25.0713 180.07 25.6892C189.263 31.5176 197.153 39.1825 203.245 48.2032C203.891 49.1515 202.325 50.0567 201.693 49.1084Z" fill="#FCE3E0"/>
</g>
<defs>
<clipPath id="clip0_81_34">
<rect width="279" height="147" fill="white"/>
</clipPath>
</defs>
</svg>
