<svg width="159" height="54" viewBox="0 0 159 54" fill="none" xmlns="http://www.w3.org/2000/svg">
<rect y="13.8146" width="155.988" height="40.1111" rx="5.57099" transform="rotate(-5.08091 0 13.8146)" fill="url(#paint0_linear_81_5)"/>
<path d="M23.3577 37.6553L19.0974 32.5566L20.6787 31.3719L25.7005 37.447L23.3577 37.6553ZM15.9788 38.3114L14.9869 27.1554L17.0269 26.974L18.0188 38.13L15.9788 38.3114ZM16.9792 33.4838L16.8205 31.6989L20.5817 31.3644L20.7404 33.1494L16.9792 33.4838ZM20.9706 32.4864L19.0514 32.4L22.3658 26.4993L24.5652 26.3038L20.9706 32.4864ZM25.5016 37.4647L29.5299 25.8624L31.5699 25.681L37.5979 36.3892L35.4305 36.5819L30.2174 26.9096L31.0461 26.8359L27.6372 37.2748L25.5016 37.4647ZM27.583 34.6774L27.9962 33.0022L34.0205 32.4666L34.7228 34.0426L27.583 34.6774ZM46.6876 35.581L42.4273 30.4823L44.0086 29.2976L49.0303 35.3727L46.6876 35.581ZM39.3087 36.2371L38.3168 25.0811L40.3567 24.8997L41.3486 36.0557L39.3087 36.2371ZM40.3091 31.4095L40.1504 29.6246L43.9115 29.2902L44.0702 31.0751L40.3091 31.4095ZM44.3004 30.4121L42.3812 30.3257L45.6957 24.425L47.895 24.2295L44.3004 30.4121ZM60.4084 34.5217C59.5372 34.5992 58.7223 34.5271 57.9637 34.3054C57.205 34.0837 56.5321 33.7419 55.9449 33.2801C55.3568 32.8077 54.8832 32.2394 54.5243 31.5752C54.1645 30.9005 53.9477 30.1487 53.8741 29.32C53.8004 28.4912 53.8816 27.7183 54.1177 27.0013C54.3528 26.2736 54.7186 25.6307 55.2152 25.0725C55.7107 24.5037 56.3123 24.0433 57.0199 23.6912C57.7275 23.3392 58.5116 23.1249 59.3722 23.0484C60.2435 22.9709 61.0531 23.0435 61.8011 23.2661C62.5597 23.4878 63.2331 23.8349 63.8212 24.3073C64.4084 24.7691 64.8819 25.3374 65.2418 26.0122C65.6007 26.6764 65.817 27.4228 65.8907 28.2515C65.9643 29.0803 65.8836 29.8585 65.6485 30.5862C65.4133 31.3139 65.0475 31.9568 64.551 32.5149C64.0545 33.0731 63.4524 33.5282 62.7448 33.8803C62.0478 34.2314 61.269 34.4452 60.4084 34.5217ZM60.2309 32.7063C60.7941 32.6562 61.3062 32.5143 61.7673 32.2806C62.2284 32.0468 62.6187 31.739 62.9381 31.3572C63.2566 30.9648 63.4907 30.5264 63.6404 30.0419C63.7997 29.5458 63.8539 29.0109 63.8029 28.4372C63.7519 27.8634 63.6047 27.3518 63.3612 26.9023C63.1275 26.4411 62.8197 26.0509 62.4379 25.7314C62.0552 25.4014 61.6162 25.162 61.1211 25.0132C60.626 24.8645 60.0969 24.8152 59.5338 24.8652C58.9707 24.9153 58.4586 25.0572 57.9974 25.291C57.547 25.5238 57.1572 25.8369 56.828 26.2302C56.5086 26.612 56.2692 27.0509 56.1098 27.547C55.9601 28.0315 55.9108 28.5606 55.9618 29.1343C56.0119 29.6974 56.1538 30.2096 56.3876 30.6707C56.6319 31.1308 56.9455 31.526 57.3282 31.856C57.71 32.1755 58.1485 32.4096 58.6436 32.5583C59.1387 32.707 59.6678 32.7564 60.2309 32.7063ZM68.6931 33.6245L67.7012 22.4685L76.387 21.6962L76.5386 23.4015L69.8928 23.9924L70.1365 26.7336L73.4355 26.4402C74.7742 26.3212 75.8139 26.5126 76.5546 27.0143C77.305 27.5044 77.7274 28.2807 77.8218 29.3432C77.9191 30.4375 77.6069 31.322 76.8852 31.9966C76.1731 32.6596 75.1158 33.0534 73.7133 33.1781L68.6931 33.6245ZM70.5914 31.8494L73.4601 31.5943C74.2569 31.5235 74.8488 31.3156 75.2358 30.9706C75.6228 30.6256 75.7903 30.161 75.7383 29.5766C75.6363 28.4291 74.7725 27.9277 73.1469 28.0722L70.2782 28.3273L70.5914 31.8494ZM79.9234 32.7866C79.7428 32.8026 79.5608 32.8028 79.3773 32.787C79.1939 32.7711 78.994 32.7514 78.7777 32.7278L78.761 30.9142C78.9136 30.9435 79.0748 30.9505 79.2448 30.9354C79.6911 30.8957 80.0309 30.6835 80.2644 30.2986C80.497 29.9031 80.6401 29.3443 80.6936 28.622C80.7472 27.8998 80.749 27.0161 80.6989 25.9711L80.4473 21.3352L88.6549 20.6054L89.6468 31.7614L87.6069 31.9428L86.7255 22.0299L87.249 22.4974L81.9419 22.9693L82.3414 22.4037L82.5246 25.7285C82.5909 26.8363 82.603 27.8151 82.5608 28.6648C82.5185 29.5146 82.4007 30.2372 82.2074 30.8326C82.0237 31.4165 81.7485 31.8747 81.3818 32.2072C81.0152 32.5396 80.529 32.7327 79.9234 32.7866ZM91.3668 31.6085L95.3951 20.0062L97.4351 19.8248L103.463 30.533L101.296 30.7257L96.0826 21.0534L96.9113 20.9797L93.5024 31.4186L91.3668 31.6085ZM93.4481 28.8212L93.8614 27.146L99.8856 26.6104L100.588 28.1864L93.4481 28.8212ZM110.944 25.4987C110.381 25.7951 109.829 26.0262 109.287 26.1922C108.744 26.3582 108.213 26.4643 107.692 26.5106C106.269 26.6372 105.139 26.395 104.303 25.784C103.476 25.1614 103.006 24.2073 102.892 22.9217L102.576 19.3677L104.632 19.1849L104.928 22.5158C104.998 23.302 105.28 23.882 105.773 24.2557C106.267 24.6295 106.939 24.7786 107.789 24.703C108.299 24.6577 108.804 24.5539 109.303 24.3917C109.813 24.2285 110.297 24.0035 110.753 23.7166L110.944 25.4987ZM111.01 29.862L110.018 18.706L112.074 18.5232L113.066 29.6792L111.01 29.862ZM123.572 28.7451L119.311 23.6464L120.893 22.4617L125.915 28.5368L123.572 28.7451ZM116.193 29.4012L115.201 18.2452L117.241 18.0638L118.233 29.2198L116.193 29.4012ZM117.193 24.5736L117.035 22.7887L120.796 22.4542L120.954 24.2392L117.193 24.5736ZM121.185 23.5762L119.265 23.4898L122.58 17.5891L124.779 17.3936L121.185 23.5762ZM132.483 28.1134C131.612 28.1908 130.797 28.1187 130.039 27.897C129.28 27.6754 128.607 27.3336 128.02 26.8718C127.432 26.3994 126.958 25.8311 126.599 25.1669C126.24 24.4921 126.023 23.7404 125.949 22.9116C125.875 22.0829 125.957 21.31 126.193 20.593C126.428 19.8653 126.794 19.2223 127.29 18.6642C127.786 18.0954 128.387 17.635 129.095 17.2829C129.803 16.9309 130.587 16.7166 131.447 16.6401C132.319 16.5626 133.128 16.6352 133.876 16.8578C134.635 17.0795 135.308 17.4266 135.896 17.899C136.483 18.3608 136.957 18.9291 137.317 19.6039C137.676 20.2681 137.892 21.0145 137.966 21.8432C138.039 22.672 137.959 23.4502 137.724 24.1778C137.488 24.9055 137.123 25.5485 136.626 26.1066C136.129 26.6648 135.527 27.1199 134.82 27.4719C134.123 27.8231 133.344 28.0369 132.483 28.1134ZM132.306 26.298C132.869 26.2479 133.381 26.106 133.842 25.8722C134.303 25.6385 134.694 25.3307 135.013 24.9489C135.332 24.5565 135.566 24.118 135.715 23.6336C135.875 23.1375 135.929 22.6026 135.878 22.0289C135.827 21.4551 135.68 20.9435 135.436 20.4939C135.203 20.0328 134.895 19.6426 134.513 19.3231C134.13 18.993 133.691 18.7536 133.196 18.6049C132.701 18.4562 132.172 18.4068 131.609 18.4569C131.046 18.507 130.534 18.6489 130.072 18.8826C129.622 19.1154 129.232 19.4285 128.903 19.8219C128.584 20.2037 128.344 20.6426 128.185 21.1387C128.035 21.6232 127.986 22.1523 128.037 22.726C128.087 23.2891 128.229 23.8012 128.463 24.2623C128.707 24.7225 129.021 25.1176 129.403 25.4477C129.785 25.7671 130.224 26.0012 130.719 26.15C131.214 26.2987 131.743 26.348 132.306 26.298ZM140.296 23.5315L139.25 16.1069L141.609 15.8972L141.874 23.3912L140.296 23.5315ZM141.432 27.2696C141.06 27.3027 140.741 27.2079 140.475 26.9852C140.208 26.7626 140.06 26.4813 140.03 26.1413C140 25.8013 140.097 25.5036 140.32 25.2481C140.543 24.982 140.84 24.8324 141.212 24.7994C141.584 24.7663 141.897 24.8616 142.153 25.0851C142.407 25.2981 142.55 25.5746 142.58 25.9146C142.61 26.2546 142.519 26.5571 142.307 26.8223C142.095 27.0874 141.803 27.2365 141.432 27.2696Z" fill="white"/>
<defs>
<linearGradient id="paint0_linear_81_5" x1="0" y1="33.8702" x2="155.988" y2="33.8702" gradientUnits="userSpaceOnUse">
<stop stop-color="#4B68AB"/>
<stop offset="1" stop-color="#A1B5E4"/>
</linearGradient>
</defs>
</svg>
